<?xml version="1.0" encoding="utf-8"?>
<!-- Generator: Adobe Illustrator 25.2.0, SVG Export Plug-In . SVG Version: 6.00 Build 0)  -->
<svg version="1.1" id="Layer_1" xmlns="http://www.w3.org/2000/svg" xmlns:xlink="http://www.w3.org/1999/xlink" x="0px" y="0px"
	 viewBox="0 0 595.3 841.9" style="enable-background:new 0 0 595.3 841.9;" xml:space="preserve">
<style type="text/css">
	.st0{opacity:0.43;fill:#B0B0AF;}
</style>
<path class="st0" d="M481.5,361.9v-0.9l-2.4-1.7v-15.3l-0.3-0.2v15.4l-9.2-6.5v-16.5l-0.3-0.2v16.5l-10.6-7.6v-17.8l-0.3-0.3v17.8
	l-12.5-8.9v-19.3l-0.4-0.3v19.4L430.7,325v-21.1l-0.5-0.4v21.2l-18-12.8v-23.4l-0.6-0.5v23.4l-22.2-15.8v-26.1l-0.7-0.6v26.2
	l-28.1-20v-29.5l-0.9-0.8v29.7L323,248.4v-34.1l-1.3-1v34.2L271.8,212v-40.2l-1.8-1.5v40.4l-72-51.2v-49.1l-2.6-2.2v49.4L169,138.9
	v3l26.5,18.7v94.2L169,242.1v3l26.5,12.4v94.2l-26.5-6.3v3l26.5,6.2v94.2l-26.5-0.1v3l26.5-0.1v94.2l-26.5,6.2v3l26.5-6.3v94.2
	L169,655.2v3l26.5-12.6v94.2L169,758.5v3l26.5-18.8V792l2.6-2.2v-49.1l72-51.2V730l1.8-1.5v-40.2l49.9-35.5V687l1.3-1v-34.1
	l36.7-26.1v29.7l0.9-0.8v-29.5l28.1-20v26.2l0.7-0.6v-26.1l22.2-15.8v23.4l0.6-0.5v-23.4l18-12.8v21.2l0.5-0.4v-21.1l14.9-10.6v19.4
	l0.4-0.3v-19.3l12.5-8.9v17.8l0.3-0.3v-17.8l10.6-7.6v16.5l0.3-0.2v-16.5l9.2-6.5v15.4l0.3-0.2v-15.3l2.4-1.7v-0.9l-2.4,1.7v-29.2
	l2.4-1.1v-0.9l-2.4,1.1v-29.2l2.4-0.6v-0.9l-2.4,0.5v-29.2l2.4,0v-0.9l-2.4,0v-29.2l2.4,0.5v-0.9l-2.4-0.6v-29.2l2.4,1.1v-0.9
	l-2.4-1.1v-29.2L481.5,361.9z M270.1,687.3l-72,50.7v-93.6l72-34.2V687.3z M270.1,607.9l-72,33.7V548l72-17.2V607.9z M270.1,528.4
	l-72,16.7v-93.6l72-0.2V528.4z M270.1,449l-72-0.2v-93.6l72,16.7V449z M270.1,369.6l-72-17.2v-93.6l72,33.7V369.6z M270.1,290.2
	l-72-34.2v-93.6l72,50.7V290.2z M321.8,650.9L271.8,686v-76.7l49.9-23.7V650.9z M321.8,583.6L271.8,607v-76.7l49.9-12V583.6z
	 M321.8,516.4L271.8,528v-76.7l49.9-0.2V516.4z M321.8,449.2l-49.9-0.2v-76.7l49.9,11.6V449.2z M321.8,382l-49.9-12v-76.7l49.9,23.4
	V382z M321.8,314.7L271.8,291v-76.7l49.9,35.2V314.7z M359.7,624.1L323,650v-65l36.7-17.4V624.1z M359.7,565.9L323,583v-65l36.7-8.8
	V565.9z M359.7,507.6l-36.7,8.5v-65l36.7-0.1V507.6z M359.7,449.3l-36.7-0.1v-65l36.7,8.5V449.3z M359.7,391l-36.7-8.8v-65
	l36.7,17.2V391z M359.7,332.8L323,315.3v-65l36.7,25.8V332.8z M388.7,603.7l-28.1,19.8v-56.4l28.1-13.3V603.7z M388.7,552.3
	l-28.1,13.2V509l28.1-6.7V552.3z M388.7,500.8l-28.1,6.5V451l28.1-0.1V500.8z M388.7,449.4l-28.1-0.1v-56.4l28.1,6.5V449.4z
	 M388.7,398l-28.1-6.7v-56.4l28.1,13.2V398z M388.7,346.6l-28.1-13.3v-56.4l28.1,19.8V346.6z M411.6,587.6l-22.2,15.6v-49.8
	l22.2-10.5V587.6z M411.6,541.5l-22.2,10.4v-49.8l22.2-5.3V541.5z M411.6,495.5l-22.2,5.2v-49.8l22.2-0.1V495.5z M411.6,449.5
	l-22.2-0.1v-49.8l22.2,5.2V449.5z M411.6,403.5l-22.2-5.3v-49.8l22.2,10.4V403.5z M411.6,357.4l-22.2-10.5v-49.8l22.2,15.6V357.4z
	 M430.2,574.5l-18,12.7v-44.6l18-8.5V574.5z M430.2,532.8l-18,8.4v-44.6l18-4.3V532.8z M430.2,491.2l-18,4.2v-44.6l18-0.1V491.2z
	 M430.2,449.6l-18-0.1v-44.6l18,4.2V449.6z M430.2,407.9l-18-4.3V359l18,8.4V407.9z M430.2,366.3l-18-8.5v-44.6l18,12.7V366.3z
	 M445.5,563.7l-14.9,10.5v-40.3l14.9-7.1V563.7z M445.5,525.7l-14.9,7v-40.3l14.9-3.6V525.7z M445.5,487.6l-14.9,3.5v-40.3l14.9-0.1
	V487.6z M445.5,449.6l-14.9-0.1v-40.3l14.9,3.5V449.6z M445.5,411.6l-14.9-3.6v-40.3l14.9,7V411.6z M445.5,373.6l-14.9-7.1v-40.3
	l14.9,10.5V373.6z M458.4,554.6l-12.5,8.8v-36.8l12.5-5.9V554.6z M458.4,519.6l-12.5,5.8v-36.8l12.5-3V519.6z M458.4,484.6
	l-12.5,2.9v-36.8l12.5,0V484.6z M458.4,449.7l-12.5,0v-36.8l12.5,2.9V449.7z M458.4,414.7l-12.5-3v-36.8l12.5,5.8V414.7z
	 M458.4,379.7l-12.5-5.9v-36.8l12.5,8.8V379.7z M469.4,546.9l-10.6,7.5v-33.9l10.6-5.1V546.9z M469.4,514.5l-10.6,5v-33.9l10.6-2.5
	V514.5z M469.4,482.1l-10.6,2.5v-33.9l10.6,0V482.1z M469.4,449.7l-10.6,0v-33.9l10.6,2.5V449.7z M469.4,417.3l-10.6-2.5v-33.9
	l10.6,5V417.3z M469.4,384.9l-10.6-5.1v-33.9l10.6,7.5V384.9z M478.9,540.2l-9.2,6.5v-31.4l9.2-4.4V540.2z M478.9,510.1l-9.2,4.3
	V483l9.2-2.2V510.1z M478.9,479.9l-9.2,2.1v-31.4l9.2,0V479.9z M478.9,449.7l-9.2,0v-31.4l9.2,2.1V449.7z M478.9,419.6l-9.2-2.2V386
	l9.2,4.3V419.6z M478.9,389.4l-9.2-4.4v-31.4l9.2,6.5V389.4z"/>
</svg>
